G04*
G04 #@! TF.GenerationSoftware,Altium Limited,Altium Designer,22.5.1 (42)*
G04*
G04 Layer_Color=128*
%FSLAX25Y25*%
%MOIN*%
G70*
G04*
G04 #@! TF.SameCoordinates,02D295DF-7AF2-41ED-923D-061E9FEF1AFC*
G04*
G04*
G04 #@! TF.FilePolarity,Positive*
G04*
G01*
G75*
%ADD15C,0.00200*%
D15*
X66929Y27559D02*
X70866D01*
X68898Y25591D02*
Y29528D01*
X58268Y27559D02*
X62205D01*
X60236Y25591D02*
Y29528D01*
X49606Y27559D02*
X53543D01*
X51575Y25591D02*
Y29528D01*
X38976Y27559D02*
X42913D01*
X40945Y25591D02*
Y29528D01*
X30315Y27559D02*
X34252D01*
X32283Y25591D02*
Y29528D01*
X21654Y27559D02*
X25591D01*
X23622Y25591D02*
Y29528D01*
X66929Y19685D02*
X70866D01*
X68898Y17717D02*
Y21654D01*
X58268Y19685D02*
X62205D01*
X60236Y17717D02*
Y21654D01*
X49606Y19685D02*
X53543D01*
X51575Y17717D02*
Y21654D01*
X38976Y19685D02*
X42913D01*
X40945Y17717D02*
Y21654D01*
X30315Y19685D02*
X34252D01*
X32283Y17717D02*
Y21654D01*
X21654Y19685D02*
X25591D01*
X23622Y17717D02*
Y21654D01*
X66929Y104331D02*
X70866D01*
X68898Y102362D02*
Y106299D01*
X58268Y104331D02*
X62205D01*
X60236Y102362D02*
Y106299D01*
X49606Y104331D02*
X53543D01*
X51575Y102362D02*
Y106299D01*
X38976Y104331D02*
X42913D01*
X40945Y102362D02*
Y106299D01*
X30315Y104331D02*
X34252D01*
X32283Y102362D02*
Y106299D01*
X21654Y104331D02*
X25591D01*
X23622Y102362D02*
Y106299D01*
X66929Y112205D02*
X70866D01*
X68898Y110236D02*
Y114173D01*
X58268Y112205D02*
X62205D01*
X60236Y110236D02*
Y114173D01*
X49606Y112205D02*
X53543D01*
X51575Y110236D02*
Y114173D01*
X38976Y112205D02*
X42913D01*
X40945Y110236D02*
Y114173D01*
X30315Y112205D02*
X34252D01*
X32283Y110236D02*
Y114173D01*
X21654Y112205D02*
X25591D01*
X23622Y110236D02*
Y114173D01*
M02*
