G04*
G04 #@! TF.GenerationSoftware,Altium Limited,Altium Designer,22.5.1 (42)*
G04*
G04 Layer_Color=2752767*
%FSLAX25Y25*%
%MOIN*%
G70*
G04*
G04 #@! TF.SameCoordinates,02D295DF-7AF2-41ED-923D-061E9FEF1AFC*
G04*
G04*
G04 #@! TF.FilePolarity,Positive*
G04*
G01*
G75*
%ADD14C,0.00267*%
D14*
X69698Y27559D02*
X69145Y28320D01*
X68250Y28029D01*
Y27089D01*
X69145Y26798D01*
X69698Y27559D01*
X61036D02*
X60483Y28320D01*
X59589Y28029D01*
Y27089D01*
X60483Y26798D01*
X61036Y27559D01*
X52375D02*
X51822Y28320D01*
X50928Y28029D01*
Y27089D01*
X51822Y26798D01*
X52375Y27559D01*
X41745D02*
X41192Y28320D01*
X40298Y28029D01*
Y27089D01*
X41192Y26798D01*
X41745Y27559D01*
X33084D02*
X32531Y28320D01*
X31636Y28029D01*
Y27089D01*
X32531Y26798D01*
X33084Y27559D01*
X24422D02*
X23869Y28320D01*
X22975Y28029D01*
Y27089D01*
X23869Y26798D01*
X24422Y27559D01*
X69698Y19685D02*
X69145Y20446D01*
X68250Y20155D01*
Y19215D01*
X69145Y18924D01*
X69698Y19685D01*
X61036D02*
X60483Y20446D01*
X59589Y20155D01*
Y19215D01*
X60483Y18924D01*
X61036Y19685D01*
X52375D02*
X51822Y20446D01*
X50928Y20155D01*
Y19215D01*
X51822Y18924D01*
X52375Y19685D01*
X41745D02*
X41192Y20446D01*
X40298Y20155D01*
Y19215D01*
X41192Y18924D01*
X41745Y19685D01*
X33084D02*
X32531Y20446D01*
X31636Y20155D01*
Y19215D01*
X32531Y18924D01*
X33084Y19685D01*
X24422D02*
X23869Y20446D01*
X22975Y20155D01*
Y19215D01*
X23869Y18924D01*
X24422Y19685D01*
X69698Y104331D02*
X69145Y105092D01*
X68250Y104801D01*
Y103861D01*
X69145Y103570D01*
X69698Y104331D01*
X61036D02*
X60483Y105092D01*
X59589Y104801D01*
Y103861D01*
X60483Y103570D01*
X61036Y104331D01*
X52375D02*
X51822Y105092D01*
X50928Y104801D01*
Y103861D01*
X51822Y103570D01*
X52375Y104331D01*
X41745D02*
X41192Y105092D01*
X40298Y104801D01*
Y103861D01*
X41192Y103570D01*
X41745Y104331D01*
X33084D02*
X32531Y105092D01*
X31636Y104801D01*
Y103861D01*
X32531Y103570D01*
X33084Y104331D01*
X24422D02*
X23869Y105092D01*
X22975Y104801D01*
Y103861D01*
X23869Y103570D01*
X24422Y104331D01*
X69698Y112205D02*
X69145Y112966D01*
X68250Y112675D01*
Y111735D01*
X69145Y111444D01*
X69698Y112205D01*
X61036D02*
X60483Y112966D01*
X59589Y112675D01*
Y111735D01*
X60483Y111444D01*
X61036Y112205D01*
X52375D02*
X51822Y112966D01*
X50928Y112675D01*
Y111735D01*
X51822Y111444D01*
X52375Y112205D01*
X41745D02*
X41192Y112966D01*
X40298Y112675D01*
Y111735D01*
X41192Y111444D01*
X41745Y112205D01*
X33084D02*
X32531Y112966D01*
X31636Y112675D01*
Y111735D01*
X32531Y111444D01*
X33084Y112205D01*
X24422D02*
X23869Y112966D01*
X22975Y112675D01*
Y111735D01*
X23869Y111444D01*
X24422Y112205D01*
M02*
